<svg width="854" height="683" viewBox="0 0 854 683" fill="none" xmlns="http://www.w3.org/2000/svg">
<path d="M128 0H725.333C759.281 0 791.838 13.4857 815.843 37.4903C839.848 61.495 853.333 94.0523 853.333 128V298.667H554.667V256H298.667V298.667H0V128C0 94.0523 13.4857 61.495 37.4903 37.4903C61.495 13.4857 94.0523 0 128 0ZM384 298.667H469.333V384H384V298.667ZM0 341.333H298.667V384L384 469.333H469.333L554.667 384V341.333H853.333V682.667H0V341.333Z" fill="#7000FF"/>
<rect x="338" y="443" width="177" height="34" fill="#7000FF"/>
<rect x="292" y="206" width="270" height="238" rx="30" fill="white"/>
<path d="M427 221L401.885 185H452.115L427 221Z" fill="#7000FF"/>
<path d="M407.044 445.998L425.209 436.286L423.247 458.717L407.044 445.998Z" fill="#7000FF"/>
<path d="M407.044 445.998L425.209 436.286L423.247 458.717L407.044 445.998Z" fill="#7000FF"/>
<path d="M407.089 201.953L424.339 190.695V213.211L407.089 201.953Z" fill="#7000FF"/>
<path d="M407.089 201.953L424.339 190.695V213.211L407.089 201.953Z" fill="#7000FF"/>
<path d="M449 201L431.75 189.742V212.258L449 201Z" fill="#7000FF"/>
<path d="M449 201L431.75 189.742V212.258L449 201Z" fill="#7000FF"/>
<path d="M446.956 448.002L430.753 435.283L428.791 457.714L446.956 448.002Z" fill="#7000FF"/>
<path d="M446.956 448.002L430.753 435.283L428.791 457.714L446.956 448.002Z" fill="#7000FF"/>
<g clip-path="url(#clip0_110_18)">
<path d="M396.156 215.625H325.656C313.319 215.625 303.625 224.219 303.625 235.156V297.656C303.625 308.594 313.319 317.188 325.656 317.188H396.156C408.494 317.188 418.188 308.594 418.188 297.656V235.156C418.188 224.219 408.494 215.625 396.156 215.625ZM400.562 297.656C400.562 300 398.8 301.562 396.156 301.562H325.656C323.012 301.562 321.25 300 321.25 297.656V235.156C321.25 232.812 323.012 231.25 325.656 231.25H396.156C398.8 231.25 400.562 232.812 400.562 235.156V297.656Z" fill="#7000FF"/>
<path d="M374.125 246.875H347.688C342.4 246.875 338.875 250 338.875 254.688V278.125C338.875 282.813 342.4 285.938 347.688 285.938H374.125C379.413 285.938 382.938 282.813 382.938 278.125V254.688C382.938 250 379.413 246.875 374.125 246.875ZM365.312 270.312H356.5V262.5H365.312V270.312ZM528.344 215.625H457.844C445.506 215.625 435.812 224.219 435.812 235.156V297.656C435.812 308.594 445.506 317.188 457.844 317.188H528.344C540.681 317.188 550.375 308.594 550.375 297.656V235.156C550.375 224.219 540.681 215.625 528.344 215.625ZM532.75 297.656C532.75 300 530.988 301.562 528.344 301.562H457.844C455.2 301.562 453.438 300 453.438 297.656V235.156C453.438 232.812 455.2 231.25 457.844 231.25H528.344C530.988 231.25 532.75 232.812 532.75 235.156V297.656Z" fill="#7000FF"/>
<path d="M506.312 246.875H479.875C474.587 246.875 471.062 250 471.062 254.688V278.125C471.062 282.813 474.587 285.938 479.875 285.938H506.312C511.6 285.938 515.125 282.813 515.125 278.125V254.688C515.125 250 511.6 246.875 506.312 246.875ZM497.5 270.312H488.688V262.5H497.5V270.312ZM303.625 414.844C303.625 425.781 313.319 434.375 325.656 434.375H396.156C408.494 434.375 418.188 425.781 418.188 414.844V352.344C418.188 341.406 408.494 332.812 396.156 332.812H325.656C313.319 332.812 303.625 341.406 303.625 352.344V414.844ZM321.25 352.344C321.25 350 323.012 348.438 325.656 348.438H396.156C398.8 348.438 400.562 350 400.562 352.344V414.844C400.562 417.188 398.8 418.75 396.156 418.75H325.656C323.012 418.75 321.25 417.188 321.25 414.844V352.344Z" fill="#7000FF"/>
<path d="M347.688 403.125H374.125C379.413 403.125 382.938 400 382.938 395.312V371.875C382.938 367.187 379.413 364.062 374.125 364.062H347.688C342.4 364.062 338.875 367.187 338.875 371.875V395.312C338.875 400 342.4 403.125 347.688 403.125ZM356.5 379.688H365.312V387.5H356.5V379.688ZM528.344 332.812H457.844C445.506 332.812 435.812 341.406 435.812 352.344V414.844C435.812 425.781 445.506 434.375 457.844 434.375H528.344C540.681 434.375 550.375 425.781 550.375 414.844V352.344C550.375 341.406 540.681 332.812 528.344 332.812ZM532.75 414.844C532.75 417.188 530.988 418.75 528.344 418.75H457.844C455.2 418.75 453.438 417.188 453.438 414.844V352.344C453.438 350 455.2 348.438 457.844 348.438H528.344C530.988 348.438 532.75 350 532.75 352.344V414.844Z" fill="#7000FF"/>
<path d="M506.312 364.062H479.875C474.587 364.062 471.062 367.187 471.062 371.875V395.312C471.062 400 474.587 403.125 479.875 403.125H506.312C511.6 403.125 515.125 400 515.125 395.312V371.875C515.125 367.187 511.6 364.062 506.312 364.062ZM497.5 387.5H488.688V379.688H497.5V387.5Z" fill="#7000FF"/>
<path d="M427 427L452.115 463H401.885L427 427Z" fill="#7000FF"/>
</g>
<defs>
<clipPath id="clip0_110_18">
<rect width="282" height="250" fill="white" transform="translate(286 200)"/>
</clipPath>
</defs>
</svg>
